{"title":"Hansel And Gretel-Witch Hunters (1080p-10bit)-CRF16","uid":8698525,"size":4950238684,"categoryP":"video","categoryS":"hd___movies","magnet":"?xt=urn:btih:a2f70652e481594176142335b16a34d303f67504&amp;dn=Hansel+And+Gretel-Witch+Hunters+%281080p-10bit%29-CRF16&amp;tr=udp%3A%2F%2Ftracker.openbittorrent.com%3A80&amp;tr=udp%3A%2F%2Fopen.demonii.com%3A1337&amp;tr=udp%3A%2F%2Ftracker.coppersurfer.tk%3A6969&amp;tr=udp%3A%2F%2Fexodus.desync.com%3A6969","seeders":1,"leechers":0,"uploader":"AV_dude","files":1,"time":1374009986,"description":"Will play in any recent build of Media Player Classic Home Cinema. \n\nGeneral \nUnique ID : 218646205571477450100507648432481753283 (0xA47DBA3A6771EDFA97ABED9DB62BD8C3) \nComplete name : H:OUTHansel And Gretel-Witch Hunters (1080p-10bit).mkv \nFormat : Matroska \nFormat version : Version 4 / Version 2 \nFile size : 4.61 GiB \nDuration : 1h 37mn \nOverall bit rate mode : Variable \nOverall bit rate : 6 739 Kbps \nEncoded date : UTC 2013-07-14 11:30:46 \nWriting application : mkvmerge v6.3.0 ('You can't stop me!') built on Jun 28 2013 20:09:41 \nWriting library : libebml v1.3.0 + libmatroska v1.4.0 \nAttachment : Yes \n\nVideo \nID : 1 \nFormat : AVC \nFormat/Info : Advanced Video Codec \nFormat profile : High &lt;a class=&quot;__cf_email__&quot; href=&quot;/cdn-cgi/l/email-protection&quot; data-cfemail=&quot;c5f4f58589f1ebf5&quot;&gt;[email&amp;#160;protected]&lt;/a&gt;&lt;script cf-hash='f9e31' type=&quot;text/javascript&quot;&gt;\n/* &lt;![CDATA[ */!function(){try{var t=&quot;currentScript&quot;in document?document.currentScript:function(){for(var t=document.getElementsByTagName(&quot;script&quot;),e=t.length;e--;)if(t[e].getAttribute(&quot;cf-hash&quot;))return t[e]}();if(t&amp;&amp;t.previousSibling){var e,r,n,i,c=t.previousSibling,a=c.getAttribute(&quot;data-cfemail&quot;);if(a){for(e=&quot;&quot;,r=parseInt(a.substr(0,2),16),n=2;a.length-n;n+=2)i=parseInt(a.substr(n,2),16)^r,e+=String.fromCharCode(i);e=document.createTextNode(e),c.parentNode.replaceChild(e,c)}}}catch(u){}}();/* ]]&gt; */&lt;/script&gt; \nFormat settings, CABAC : Yes \nFormat settings, ReFrames : 4 frames \nCodec ID : V_MPEG4/ISO/AVC \nDuration : 1h 37mn \nBit rate : 6 029 Kbps \nWidth : 1 920 pixels \nHeight : 800 pixels \nDisplay aspect ratio : 2.40:1 \nFrame rate mode : Constant \nFrame rate : 23.976 fps \nColor space : YUV \nChroma subsampling : 4:2:0 \nBit depth : 10 bits \nScan type : Progressive \nBits/(Pixel*Frame) : 0.164 \nStream size : 4.12 GiB (89%) \nWriting library : x264 core 136 r2348+704+51 d1baef6 tMod [10-bit@all X86_64] \nEncoding settings : cabac=1 / ref=4 / deblock=1:0:0 / analyse=0x3:0x133 / me=hex / subme=7 / psy=1 / fade_compensate=0.00 / psy_rd=1.00:0.00 / mixed_ref=1 / me_range=16 / chroma_me=1 / trellis=2 / 8x8dct=1 / cqm=0 / deadzone=21,11 / fast_pskip=1 / chroma_qp_offset=-2 / threads=12 / lookahead_threads=3 / sliced_threads=0 / nr=0 / decimate=1 / interlaced=0 / bluray_compat=0 / constrained_intra=0 / fgo=0 / bframes=4 / b_pyramid=2 / b_adapt=2 / b_bias=0 / direct=3 / weightb=1 / open_gop=0 / weightp=2 / keyint=240 / keyint_min=23 / scenecut=40 / intra_refresh=0 / rc_lookahead=120 / rc=crf / mbtree=1 / crf=16.0000 / qcomp=0.60 / qpmin=0:0:0 / qpmax=81:81:81 / qpstep=4 / ip_ratio=1.40 / aq=1:1.00 / aq-sensitivity=10.00 / aq-factor=1.00:1.00:1.00 / aq2=0 / aq3=0 \nLanguage : English \nDefault : Yes \nForced : No \n\nAudio \nID : 2 \nFormat : Vorbis \nFormat settings, Floor : 1 / 8710 \nCodec ID : A_VORBIS \nDuration : 1h 37mn \nBit rate mode : Variable \nBit rate : 576 Kbps \nChannel(s) : 6 channels \nSampling rate : 48.0 KHz \nCompression mode : Lossy \nStream size : 403 MiB (9%) \nWriting library : libVorbis (Omnipresent) (20120203 (Omnipresent)) \nDefault : Yes \nForced : No \n\nText \nID : 3 \nFormat : PGS \nMuxing mode : zlib \nCodec ID : S_HDMV/PGS \nCodec ID/Info : The same subtitle format used on BDs/HD-DVDs \nDefault : Yes \nForced : No \n\nMenu \n00:00:00.000 : en:Chapter 01 \n00:09:02.208 : en:Chapter 02 \n00:16:12.805 : en:Chapter 03 \n00:26:24.624 : en:Chapter 04 \n00:35:18.032 : en:Chapter 05 \n00:46:34.750 : en:Chapter 06 \n00:57:17.725 : en:Chapter 07 \n01:04:26.279 : en:Chapter 08 \n01:09:44.388 : en:Chapter 09 \n01:14:11.155 : en:Chapter 10 \n01:22:05.003 : en:Chapter 11 \n01:29:01.878 : en:Chapter 12 \n\n","torrent":{"xt":"urn:btih:a2f70652e481594176142335b16a34d303f67504","amp;dn":"Hansel+And+Gretel-Witch+Hunters+%281080p-10bit%29-CRF16","amp;tr":["udp%3A%2F%2Ftracker.openbittorrent.com%3A80","udp%3A%2F%2Fopen.demonii.com%3A1337","udp%3A%2F%2Ftracker.coppersurfer.tk%3A6969","udp%3A%2F%2Fexodus.desync.com%3A6969"],"infoHash":"a2f70652e481594176142335b16a34d303f67504","infoHashBuffer":{"type":"Buffer","data":[162,247,6,82,228,129,89,65,118,20,35,53,177,106,52,211,3,246,117,4]},"announce":[],"urlList":[]}}